# xmcd
#
# Track frame offsets:
#	150
#	23008
#	41243
#	63345
#	82840
#	101395
#	121360
#	140518
#	162883
#	180530
#	197958
#
# Disc length: 2875 seconds
#
# Revision: 0
# Processed by: cddbd v1.4b41PL1 Copyright (c) Steve Scherf et al.
# Submitted via: audiograbber 1.80
#
DISCID=8c0b390b
DTITLE=±i¾Ç¤Í - ¨«¹L1999
DYEAR=1900
DGENRE=
TTITLE0=¤ß¦p¤M³Î
TTITLE1=Ãa x 5 ¡]ÃaÃaÃaÃaÃa¡^
TTITLE2=¦o¨ÓÅ¥§Úªººt°Û·-
TTITLE3=¤G¤À¤§¤@ªº©¯ºÖ
TTITLE4=¯dµ¹¦Û¤v¤@­Ó±ß¤W
TTITLE5=»{§É
TTITLE6=¦n§b
TTITLE7=¨«¹L1999
TTITLE8=§A¦n¬r
TTITLE9=©ñ±ó§A
TTITLE10=¤k¤H­»
EXTD=
EXTT0=
EXTT1=
EXTT2=
EXTT3=
EXTT4=
EXTT5=
EXTT6=
EXTT7=
EXTT8=
EXTT9=
EXTT10=
PLAYORDER=
